<?xml version="1.0" encoding="utf-8"?>
<!-- Generator: Adobe Illustrator 27.0.0, SVG Export Plug-In . SVG Version: 6.00 Build 0)  -->
<svg version="1.1" id="Layer_1" xmlns="http://www.w3.org/2000/svg" xmlns:xlink="http://www.w3.org/1999/xlink" x="0px" y="0px"
	 viewBox="0 0 550 370" style="enable-background:new 0 0 550 370;" xml:space="preserve">
<style type="text/css">
	.st0{fill:#171E2D;}
	.st1{fill:#D7B189;}
</style>
<rect x="0" class="st0" width="550" height="370"/>
<g>
	<g>
		<g>
			<path class="st1" d="M255,159.35c0.14,0,0.89,2.76,0.98,3.09c0.36,1.29,0.87,2.52,1.51,3.7c1.3,2.41,3.09,4.54,5.11,6.38
				c5.32,4.84,12.09,7.58,17.87,11.78c1.74,1.27,3.38,2.68,4.8,4.31c3.49,4.02,5.68,10.7,2.49,15.55
				c-3.08,4.68-11.39,6.47-16.91,5.09c0,0-4.01-1.33-7.08-1.61v0.79h-0.79v-9.35h1.53c-0.04,0,0.44,1.93,0.48,2.04
				c0.54,1.56,1.42,3.01,2.65,4.12c3.62,3.28,11.15,3.66,14.54-0.15c1.98-2.22,2.16-5.64,1.05-8.39s-3.33-4.92-5.73-6.68
				c-3.11-2.27-6.46-4.28-9.75-6.27c-4.04-2.45-7.61-5.79-10.94-9.12v19.08h-10.83v-0.94l3.42-1.19c2.11-0.51,3.6-2.4,3.6-4.57
				v-27.65C252.99,159.35,255,159.35,255,159.35z"/>
			<path class="st1" d="M295,195.85c-0.14,0-0.89-2.76-0.98-3.09c-0.36-1.29-0.88-2.52-1.51-3.7c-1.3-2.41-3.09-4.54-5.11-6.38
				c-5.32-4.84-12.09-7.58-17.87-11.78c-1.74-1.27-3.38-2.68-4.8-4.31c-3.49-4.02-5.68-10.7-2.49-15.55
				c3.08-4.68,11.39-6.47,16.91-5.09c0,0,4.01,1.33,7.08,1.61v-0.79h0.79v9.35h-1.53c0.04,0-0.44-1.93-0.48-2.04
				c-0.54-1.56-1.42-3.01-2.65-4.12c-3.62-3.28-11.15-3.66-14.54,0.15c-1.98,2.22-2.16,5.64-1.05,8.39s3.33,4.92,5.73,6.68
				c3.11,2.27,6.46,4.28,9.75,6.27c4.04,2.45,7.61,5.79,10.94,9.12v-19.08h10.83v0.94l-3.42,1.19c-2.11,0.51-3.6,2.4-3.6,4.57v27.65
				C297.01,195.85,295,195.85,295,195.85z"/>
		</g>
		<path class="st1" d="M316.51,168.69c-16.52-37.31-66.68-37.26-82.98,0.58c-1.03-15.64,17.69-32.83,37.92-34.84
			C292.88,132.3,313.63,148.08,316.51,168.69z"/>
		<path class="st1" d="M261.87,110.76c8.97,0,17.88,0,26.91,0c-3.12,15.14-4.28,16.31-15.57,16.28
			C266.96,127.03,264.25,123.18,261.87,110.76z"/>
		<path class="st1" d="M281.19,131.77h-11.53c-0.84,0-1.53-0.69-1.53-1.53l0,0c0-0.84,0.69-1.53,1.53-1.53h11.53
			c0.84,0,1.53,0.69,1.53,1.53l0,0C282.72,131.08,282.03,131.77,281.19,131.77z"/>
	</g>
</g>
<g>
	<g>
		<path class="st1" d="M168.55,256.68c-0.52,0-1.02-0.08-1.5-0.25s-0.84-0.39-1.11-0.65l0.29-0.57c0.25,0.24,0.58,0.44,1,0.6
			c0.42,0.16,0.86,0.25,1.32,0.25c0.44,0,0.8-0.05,1.07-0.17c0.28-0.11,0.48-0.26,0.61-0.44s0.2-0.39,0.2-0.62
			c0-0.27-0.08-0.49-0.24-0.66s-0.36-0.3-0.62-0.4c-0.25-0.1-0.53-0.18-0.84-0.25c-0.31-0.07-0.61-0.15-0.92-0.23
			c-0.31-0.08-0.59-0.2-0.84-0.33c-0.26-0.14-0.46-0.33-0.62-0.56c-0.16-0.23-0.24-0.53-0.24-0.9c0-0.35,0.09-0.67,0.28-0.96
			s0.46-0.52,0.84-0.7s0.87-0.26,1.46-0.26c0.39,0,0.78,0.05,1.17,0.17c0.39,0.11,0.72,0.26,1,0.45l-0.25,0.59
			c-0.3-0.2-0.62-0.35-0.96-0.44c-0.34-0.09-0.66-0.14-0.97-0.14c-0.42,0-0.77,0.06-1.04,0.17s-0.47,0.26-0.6,0.46
			c-0.13,0.19-0.2,0.4-0.2,0.64c0,0.27,0.08,0.49,0.24,0.66c0.16,0.17,0.36,0.3,0.62,0.39c0.26,0.09,0.54,0.18,0.85,0.25
			c0.31,0.07,0.61,0.15,0.92,0.24c0.3,0.09,0.58,0.2,0.84,0.33s0.46,0.32,0.62,0.54c0.16,0.23,0.23,0.52,0.23,0.89
			c0,0.34-0.09,0.65-0.28,0.94c-0.19,0.29-0.47,0.52-0.86,0.7S169.15,256.68,168.55,256.68z"/>
		<path class="st1" d="M177.81,256.68c-0.53,0-1.01-0.09-1.46-0.26c-0.45-0.18-0.83-0.42-1.16-0.75c-0.33-0.32-0.58-0.7-0.76-1.13
			s-0.28-0.91-0.28-1.42s0.09-0.99,0.28-1.42s0.44-0.81,0.77-1.13c0.33-0.32,0.72-0.57,1.17-0.75c0.45-0.18,0.93-0.26,1.46-0.26
			c0.51,0,0.98,0.08,1.43,0.25c0.45,0.17,0.82,0.42,1.13,0.76l-0.47,0.47c-0.29-0.29-0.6-0.5-0.95-0.63s-0.72-0.2-1.12-0.2
			c-0.42,0-0.81,0.07-1.17,0.22c-0.36,0.14-0.67,0.35-0.94,0.61c-0.27,0.26-0.47,0.57-0.62,0.92c-0.15,0.35-0.22,0.74-0.22,1.16
			s0.08,0.8,0.22,1.16c0.15,0.35,0.36,0.66,0.62,0.92s0.58,0.47,0.94,0.61c0.36,0.14,0.75,0.22,1.17,0.22c0.4,0,0.77-0.07,1.12-0.2
			c0.35-0.13,0.66-0.35,0.95-0.64l0.47,0.47c-0.31,0.34-0.68,0.6-1.13,0.77C178.8,256.59,178.32,256.68,177.81,256.68z"/>
		<path class="st1" d="M184.7,255.98h4.21v0.64h-4.95v-7h4.8v0.64h-4.06V255.98z M184.62,252.75h3.7v0.63h-3.7V252.75z"/>
		<path class="st1" d="M192.65,256.62v-7h0.61l4.83,6.08h-0.32v-6.08h0.73v7h-0.61l-4.82-6.08h0.32v6.08H192.65z"/>
		<path class="st1" d="M204.14,256.62v-6.36h-2.46v-0.64h5.66v0.64h-2.46v6.36H204.14z"/>
		<path class="st1" d="M212.34,256.68c-0.52,0-1.02-0.08-1.5-0.25s-0.84-0.39-1.11-0.65l0.29-0.57c0.25,0.24,0.58,0.44,1,0.6
			c0.42,0.16,0.86,0.25,1.32,0.25c0.44,0,0.8-0.05,1.07-0.17c0.28-0.11,0.48-0.26,0.61-0.44s0.2-0.39,0.2-0.62
			c0-0.27-0.08-0.49-0.24-0.66s-0.36-0.3-0.62-0.4c-0.25-0.1-0.53-0.18-0.84-0.25c-0.31-0.07-0.61-0.15-0.92-0.23
			c-0.31-0.08-0.59-0.2-0.84-0.33c-0.26-0.14-0.46-0.33-0.62-0.56c-0.16-0.23-0.24-0.53-0.24-0.9c0-0.35,0.09-0.67,0.28-0.96
			s0.46-0.52,0.84-0.7s0.87-0.26,1.46-0.26c0.39,0,0.78,0.05,1.17,0.17c0.39,0.11,0.72,0.26,1,0.45l-0.25,0.59
			c-0.3-0.2-0.62-0.35-0.96-0.44c-0.34-0.09-0.66-0.14-0.97-0.14c-0.42,0-0.77,0.06-1.04,0.17s-0.47,0.26-0.6,0.46
			c-0.13,0.19-0.2,0.4-0.2,0.64c0,0.27,0.08,0.49,0.24,0.66c0.16,0.17,0.36,0.3,0.62,0.39c0.26,0.09,0.54,0.18,0.85,0.25
			c0.31,0.07,0.61,0.15,0.92,0.24c0.3,0.09,0.58,0.2,0.84,0.33s0.46,0.32,0.62,0.54c0.16,0.23,0.23,0.52,0.23,0.89
			c0,0.34-0.09,0.65-0.28,0.94c-0.19,0.29-0.47,0.52-0.86,0.7S212.94,256.68,212.34,256.68z"/>
		<path class="st1" d="M224.54,256.62v-6.36h-2.46v-0.64h5.66v0.64h-2.46v6.36H224.54z"/>
		<path class="st1" d="M231.66,256.62h-0.74v-7h0.74V256.62z M236.11,253.39h-4.53v-0.65h4.53V253.39z M236.04,249.62h0.73v7h-0.73
			V249.62z"/>
		<path class="st1" d="M239.92,256.62l3.2-7h0.73l3.2,7h-0.78l-2.94-6.57h0.3l-2.94,6.57H239.92z M241.19,254.75l0.22-0.6h4.07
			l0.22,0.6H241.19z"/>
		<path class="st1" d="M251.23,256.62v-6.36h-2.46v-0.64h5.66v0.64h-2.46v6.36H251.23z"/>
		<path class="st1" d="M262.23,256.62v-7h0.61l3.2,5.46h-0.32l3.17-5.46h0.61v7h-0.71v-5.89h0.17l-2.92,5h-0.35l-2.94-5h0.19v5.89
			H262.23z"/>
		<path class="st1" d="M272.66,256.62l3.2-7h0.73l3.2,7h-0.78l-2.94-6.57h0.3l-2.94,6.57H272.66z M273.92,254.75l0.22-0.6h4.07
			l0.22,0.6H273.92z"/>
		<path class="st1" d="M282.95,256.62v-7h0.74v7H282.95z M283.59,254.88l-0.03-0.9l4.24-4.36h0.85l-3.09,3.24l-0.42,0.45
			L283.59,254.88z M287.98,256.62l-3.02-3.48l0.5-0.54l3.4,4.02H287.98z"/>
		<path class="st1" d="M292.79,255.98H297v0.64h-4.95v-7h4.8v0.64h-4.06V255.98z M292.71,252.75h3.7v0.63h-3.7V252.75z"/>
		<path class="st1" d="M302.68,256.68c-0.52,0-1.02-0.08-1.5-0.25s-0.84-0.39-1.11-0.65l0.29-0.57c0.25,0.24,0.58,0.44,1,0.6
			c0.42,0.16,0.86,0.25,1.32,0.25c0.44,0,0.8-0.05,1.07-0.17c0.28-0.11,0.48-0.26,0.61-0.44s0.2-0.39,0.2-0.62
			c0-0.27-0.08-0.49-0.24-0.66s-0.36-0.3-0.62-0.4c-0.25-0.1-0.53-0.18-0.84-0.25c-0.31-0.07-0.61-0.15-0.92-0.23
			c-0.31-0.08-0.59-0.2-0.84-0.33c-0.26-0.14-0.46-0.33-0.62-0.56c-0.16-0.23-0.24-0.53-0.24-0.9c0-0.35,0.09-0.67,0.28-0.96
			s0.46-0.52,0.84-0.7s0.87-0.26,1.46-0.26c0.39,0,0.78,0.05,1.17,0.17c0.39,0.11,0.72,0.26,1,0.45l-0.25,0.59
			c-0.3-0.2-0.62-0.35-0.96-0.44c-0.34-0.09-0.66-0.14-0.97-0.14c-0.42,0-0.77,0.06-1.04,0.17s-0.47,0.26-0.6,0.46
			c-0.13,0.19-0.2,0.4-0.2,0.64c0,0.27,0.08,0.49,0.24,0.66c0.16,0.17,0.36,0.3,0.62,0.39c0.26,0.09,0.54,0.18,0.85,0.25
			c0.31,0.07,0.61,0.15,0.92,0.24c0.3,0.09,0.58,0.2,0.84,0.33s0.46,0.32,0.62,0.54c0.16,0.23,0.23,0.52,0.23,0.89
			c0,0.34-0.09,0.65-0.28,0.94c-0.19,0.29-0.47,0.52-0.86,0.7S303.28,256.68,302.68,256.68z"/>
		<path class="st1" d="M315.18,256.62v-2.6l0.17,0.46l-2.97-4.86h0.79l2.61,4.27h-0.42l2.61-4.27h0.74l-2.97,4.86l0.17-0.46v2.6
			H315.18z"/>
		<path class="st1" d="M324.63,256.68c-0.53,0-1.02-0.09-1.46-0.26c-0.45-0.18-0.84-0.43-1.17-0.75c-0.33-0.32-0.59-0.7-0.77-1.13
			s-0.28-0.9-0.28-1.42s0.09-0.99,0.28-1.42s0.44-0.81,0.77-1.13c0.33-0.32,0.72-0.57,1.17-0.75c0.45-0.18,0.94-0.26,1.47-0.26
			c0.53,0,1.01,0.09,1.46,0.26c0.45,0.18,0.83,0.42,1.17,0.75c0.33,0.32,0.59,0.7,0.77,1.13s0.28,0.91,0.28,1.42
			s-0.09,0.99-0.28,1.42s-0.44,0.81-0.77,1.13c-0.33,0.32-0.72,0.57-1.17,0.75C325.64,256.59,325.15,256.68,324.63,256.68z
			 M324.63,256.02c0.42,0,0.81-0.07,1.17-0.22c0.36-0.14,0.67-0.35,0.93-0.61s0.47-0.57,0.62-0.92c0.15-0.35,0.22-0.74,0.22-1.16
			s-0.07-0.8-0.22-1.16c-0.15-0.35-0.35-0.66-0.62-0.92c-0.26-0.26-0.57-0.47-0.93-0.61c-0.36-0.14-0.75-0.22-1.17-0.22
			s-0.81,0.07-1.17,0.22c-0.36,0.14-0.67,0.35-0.94,0.61c-0.26,0.26-0.47,0.57-0.62,0.92c-0.15,0.35-0.22,0.74-0.22,1.16
			c0,0.41,0.08,0.8,0.22,1.15c0.15,0.35,0.36,0.66,0.62,0.92c0.26,0.26,0.58,0.47,0.94,0.61
			C323.82,255.94,324.21,256.02,324.63,256.02z"/>
		<path class="st1" d="M334.78,256.68c-0.89,0-1.6-0.26-2.11-0.77c-0.51-0.51-0.77-1.27-0.77-2.28v-4.01h0.74v3.98
			c0,0.83,0.19,1.44,0.56,1.83c0.37,0.39,0.9,0.59,1.58,0.59c0.69,0,1.22-0.2,1.59-0.59c0.37-0.39,0.56-1,0.56-1.83v-3.98h0.72v4.01
			c0,1.01-0.25,1.77-0.76,2.28C336.37,256.42,335.67,256.68,334.78,256.68z"/>
		<path class="st1" d="M348.43,256.68c-0.52,0-1.02-0.08-1.5-0.25s-0.84-0.39-1.11-0.65l0.29-0.57c0.25,0.24,0.58,0.44,1,0.6
			c0.42,0.16,0.86,0.25,1.32,0.25c0.44,0,0.8-0.05,1.07-0.17c0.28-0.11,0.48-0.26,0.61-0.44s0.2-0.39,0.2-0.62
			c0-0.27-0.08-0.49-0.24-0.66s-0.36-0.3-0.62-0.4c-0.25-0.1-0.53-0.18-0.84-0.25c-0.31-0.07-0.61-0.15-0.92-0.23
			c-0.31-0.08-0.59-0.2-0.84-0.33c-0.26-0.14-0.46-0.33-0.62-0.56c-0.16-0.23-0.24-0.53-0.24-0.9c0-0.35,0.09-0.67,0.28-0.96
			s0.46-0.52,0.84-0.7s0.87-0.26,1.46-0.26c0.39,0,0.78,0.05,1.17,0.17c0.39,0.11,0.72,0.26,1,0.45l-0.25,0.59
			c-0.3-0.2-0.62-0.35-0.96-0.44c-0.34-0.09-0.66-0.14-0.97-0.14c-0.42,0-0.77,0.06-1.04,0.17s-0.47,0.26-0.6,0.46
			c-0.13,0.19-0.2,0.4-0.2,0.64c0,0.27,0.08,0.49,0.24,0.66c0.16,0.17,0.36,0.3,0.62,0.39c0.26,0.09,0.54,0.18,0.85,0.25
			c0.31,0.07,0.61,0.15,0.92,0.24c0.3,0.09,0.58,0.2,0.84,0.33s0.46,0.32,0.62,0.54c0.16,0.23,0.23,0.52,0.23,0.89
			c0,0.34-0.09,0.65-0.28,0.94c-0.19,0.29-0.47,0.52-0.86,0.7S349.03,256.68,348.43,256.68z"/>
		<path class="st1" d="M354.64,256.62v-7h0.61l3.2,5.46h-0.32l3.17-5.46h0.61v7h-0.71v-5.89h0.17l-2.92,5h-0.35l-2.94-5h0.19v5.89
			H354.64z"/>
		<path class="st1" d="M366.2,256.62v-7h0.74v7H366.2z"/>
		<path class="st1" d="M371.21,256.62v-7h0.74v6.36h3.92v0.64H371.21z"/>
		<path class="st1" d="M379.84,255.98h4.21v0.64h-4.95v-7h4.8v0.64h-4.06V255.98z M379.76,252.75h3.7v0.63h-3.7V252.75z"/>
	</g>
</g>
<g>
	<g>
		<path class="st1" d="M401.46,225.92v-6.36H399v-0.64h5.66v0.64h-2.46v6.36H401.46z"/>
		<path class="st1" d="M405.84,225.92v-7h0.61l3.2,5.46h-0.32l3.17-5.46h0.61v7h-0.71v-5.89h0.17l-2.92,5h-0.35l-2.94-5h0.19v5.89
			H405.84z"/>
	</g>
</g>
<g>
	<g>
		<path class="st1" d="M155.86,237.42c0,4.71-4,7.62-9.51,7.62c-2.69,0-5.35-0.67-7.33-1.86c-1.02-0.64-1.73,0.32-1.92,1.09
			l-0.7-7.46c0.9,2.31,3.49,7.75,9.96,7.75c3.3,0,5.67-1.95,5.67-4.64c0-6.47-14.61-5.8-14.61-14.54c0-5,4.87-6.92,8.62-6.92
			c2.53,0,3.84,0.71,5.8,1.92c0.99,0.61,1.31-0.8,1.31-0.8l0.45,6.66c-0.87-3.14-3.49-7.33-7.24-7.33c-2.82,0-4.77,2.08-4.77,4.61
			C141.58,230.02,155.86,228.87,155.86,237.42z"/>
		<path class="st1" d="M177.51,241.13c-1.31,2.4-4.23,3.91-7.46,3.91c-7.14,0-12.91-5.99-12.91-13.29c0-7.33,5.77-13.29,12.91-13.29
			c1.6,0,3.46,0.64,5.03,1.54c0.64,0.38,1.06-0.19,1.22-0.77v7.62c-0.61-3.04-2.53-7.94-6.25-7.94c-5.06,0-7.91,6.09-7.91,12.84
			c0,6.73,3.01,11.82,8.07,12.2C173.15,244.18,175.49,243.18,177.51,241.13z"/>
		<path class="st1" d="M208.76,237.83l-1.54,6.69h-28.6c0.32-0.51,1.83-0.71,1.83-2.43v-20.69c0-1.73-1.5-1.95-1.83-2.43h16.11
			l1.22,5.77c-1.73-2.95-2.95-5.32-7.59-5.32H185v11.56h3.97c1.73,0,1.92-2.37,2.43-2.88v6.21c-0.51-0.51-0.71-2.88-2.43-2.88H185
			v12.65h15.85C205.56,244.08,207.45,240.59,208.76,237.83z M199.35,239.66v-18.26c0-1.73-1.47-1.95-1.83-2.43h5.61l14.92,18.58
			v-16.14c0-1.73-1.51-1.95-1.83-2.43h4.1c-0.32,0.48-1.83,0.71-1.83,2.43v23.12h-0.45l-18.26-23.35v18.48
			c0,1.73,1.47,1.92,1.83,2.43h-4.1C197.87,241.58,199.35,241.39,199.35,239.66z"/>
		<path class="st1" d="M236.01,219.42h-1.54v22.68c0,1.73,1.51,1.92,1.83,2.43h-8.2c0.32-0.51,1.83-0.71,1.83-2.43v-22.68h-1.54
			c-4.64,0-5.86,2.37-7.59,5.32l1.22-5.77h20.37l1.22,5.77C241.84,221.79,240.66,219.42,236.01,219.42z"/>
		<path class="st1" d="M263.55,237.42c0,4.71-4,7.62-9.51,7.62c-2.69,0-5.35-0.67-7.33-1.86c-1.02-0.64-1.73,0.32-1.92,1.09
			l-0.7-7.46c0.9,2.31,3.49,7.75,9.96,7.75c3.3,0,5.67-1.95,5.67-4.64c0-6.47-14.61-5.8-14.61-14.54c0-5,4.87-6.92,8.62-6.92
			c2.53,0,3.84,0.71,5.8,1.92c0.99,0.61,1.31-0.8,1.31-0.8l0.45,6.66c-0.87-3.14-3.49-7.33-7.24-7.33c-2.82,0-4.77,2.08-4.77,4.61
			C249.27,230.02,263.55,228.87,263.55,237.42z"/>
		<path class="st1" d="M295,221.41v23.12h-0.45l-18.26-23.35v20.91c0,1.73,1.47,1.92,1.83,2.43h-4.1c0.35-0.51,1.83-0.71,1.83-2.43
			v-20.69c0-1.73-1.47-1.95-1.83-2.43h5.6l14.93,18.58v-16.14c0-1.73-1.51-1.95-1.83-2.43h4.1C296.5,219.45,295,219.68,295,221.41z"
			/>
		<path class="st1" d="M326.7,237.42c0,4.71-4,7.62-9.51,7.62c-2.69,0-5.35-0.67-7.33-1.86c-1.02-0.64-1.73,0.32-1.92,1.09
			l-0.7-7.46c0.9,2.31,3.49,7.75,9.96,7.75c3.3,0,5.67-1.95,5.67-4.64c0-6.47-14.61-5.8-14.61-14.54c0-5,4.87-6.92,8.62-6.92
			c2.53,0,3.84,0.71,5.8,1.92c0.99,0.61,1.31-0.8,1.31-0.8l0.45,6.66c-0.87-3.14-3.49-7.33-7.24-7.33c-2.82,0-4.77,2.08-4.77,4.61
			C312.42,230.02,326.7,228.87,326.7,237.42z"/>
		<path class="st1" d="M354.95,221.41v20.69c0,1.73,1.51,1.92,1.83,2.43h-8.2c0.32-0.51,1.83-0.71,1.83-2.43v-21.97l-9.61,24.41
			h-0.45l-10.03-22.8v20.37c0,1.73,1.47,1.92,1.83,2.43h-4.1c0.35-0.51,1.83-0.71,1.83-2.43v-20.69c0-1.73-1.47-1.95-1.83-2.43h5.6
			l8.97,19.76l7.78-19.76h6.37C356.45,219.45,354.95,219.68,354.95,221.41z"/>
		<path class="st1" d="M365.06,221.41v20.69c0,1.73,1.47,1.92,1.83,2.43h-8.2c0.35-0.51,1.83-0.71,1.83-2.43v-20.69
			c0-1.73-1.47-1.95-1.83-2.43h8.2C366.53,219.45,365.06,219.68,365.06,221.41z"/>
		<path class="st1" d="M370.63,242.09v-20.69c0-1.73-1.5-1.95-1.83-2.43h8.2c-0.32,0.48-1.83,0.71-1.83,2.43v22.68h9.45
			c4.68,0,5.86-2.4,7.62-5.35l-1.22,5.8h-22.23C369.13,244.02,370.63,243.82,370.63,242.09z M394.08,230.53l-1.54,6.69h-13.36
			c0.35-0.51,1.83-0.7,1.83-2.43v-13.39c0-1.73-1.47-1.92-1.83-2.43h13.36l1.22,5.8c-1.73-2.95-2.95-5.35-7.59-5.35h-0.61v7.62h2.43
			c1.73,0,1.92-2.37,2.43-2.92v6.25c-0.51-0.51-0.71-2.88-2.43-2.88h-2.43v9.29h0.61C390.87,236.78,392.76,233.29,394.08,230.53z"/>
	</g>
</g>
</svg>
